<svg xmlns="http://www.w3.org/2000/svg" xml:space="preserve" style="white-space:pre" width="530" height="190" viewBox="0 0 530 190" font-family="'DejaVu Sans Mono', Consolas, 'Ubuntu Mono', monospace">
  <rect width="530" height="190" fill="#686868"/>
  <rect x="6" y="8" width="518" height="152" fill="#0b4136"/>
  <rect x="6" y="8" width="518" height="20" fill="#105f4f"/>
  <text x="265" y="23" fill="#ddd" font-size="13" text-anchor="middle">Departure&#160;List</text>
  <line x1="6" y1="58" x2="524" y2="58" stroke="#105f4f"/>
  <g font-size="14"><text x="14" y="52" fill="#9fd3c7">C/S</text><text x="104" y="52" fill="#9fd3c7">ADES</text><text x="166" y="52" fill="#9fd3c7">RWY</text><text x="212" y="52" fill="#9fd3c7">SID</text><text x="296" y="52" fill="#9fd3c7">CFL</text><text x="350" y="52" fill="#9fd3c7">ASSR</text><text x="412" y="52" fill="#9fd3c7">CLR</text><text x="456" y="52" fill="#9fd3c7">STS</text><text x="14" y="76" fill="#ffffff">AZU4100</text><text x="104" y="76" fill="#ffffff">SBKP</text><text x="166" y="76" fill="#ffffff">15</text><text x="212" y="76" fill="#ffffff">GERT1A</text><text x="296" y="76" fill="#ffffff">040</text><text x="350" y="76" fill="#ffffff">4521</text><text x="412" y="76" fill="#ffffff">✓</text><text x="456" y="76" fill="#ffffff">TAXI</text><text x="14" y="98" fill="#ffffff">GLO1122</text><text x="104" y="98" fill="#ffffff">SBGR</text><text x="166" y="98" fill="#ffffff">15</text><text x="212" y="98" fill="#ffffff">GERT1A</text><text x="296" y="98" fill="#ffffff">040</text><text x="350" y="98" fill="#ffffff">4522</text><text x="412" y="98" fill="#ffffff">✓</text><text x="456" y="98" fill="#ffffff">PUSH</text><text x="14" y="120" fill="#ffffff">TAM3410</text><text x="104" y="120" fill="#ffffff">SBGR</text><text x="166" y="120" fill="#ffffff">15</text><text x="212" y="120" fill="#ffffff">GERT1A</text><text x="296" y="120" fill="#ffffff">040</text><text x="350" y="120" fill="#ffffff">4523</text><text x="412" y="120" fill="#ffffff">✓</text><text x="456" y="120" fill="#ffffff">ST-UP</text><text x="14" y="142" fill="#ffffff">PTB2231</text><text x="104" y="142" fill="#ffffff">SBFI</text><text x="166" y="142" fill="#ffffff">15</text><text x="212" y="142" fill="#ffff00"></text><text x="296" y="142" fill="#ffff00"></text><text x="350" y="142" fill="#ffff00"></text><text x="412" y="142" fill="#ffff00"></text><text x="456" y="142" fill="#ffff00"></text></g>
  <g font-family="Arial, Helvetica, sans-serif" font-size="11" font-weight="bold" fill="#fff" text-anchor="middle"><g transform="translate(30,174)"><circle r="10" fill="#e53935" stroke="#fff" stroke-width="1.5"/><text y="4">1</text></g><g transform="translate(116,174)"><circle r="10" fill="#e53935" stroke="#fff" stroke-width="1.5"/><text y="4">2</text></g><g transform="translate(180,174)"><circle r="10" fill="#e53935" stroke="#fff" stroke-width="1.5"/><text y="4">3</text></g><g transform="translate(236,174)"><circle r="10" fill="#e53935" stroke="#fff" stroke-width="1.5"/><text y="4">4</text></g><g transform="translate(310,174)"><circle r="10" fill="#e53935" stroke="#fff" stroke-width="1.5"/><text y="4">5</text></g><g transform="translate(368,174)"><circle r="10" fill="#e53935" stroke="#fff" stroke-width="1.5"/><text y="4">6</text></g><g transform="translate(424,174)"><circle r="10" fill="#e53935" stroke="#fff" stroke-width="1.5"/><text y="4">7</text></g><g transform="translate(478,174)"><circle r="10" fill="#e53935" stroke="#fff" stroke-width="1.5"/><text y="4">8</text></g></g>
</svg>
