<svg width="443" height="84" viewBox="0 0 443 84" fill="none" xmlns="http://www.w3.org/2000/svg">
<path d="M187.214 39.8887C188.709 39.8887 189.921 38.6768 189.921 37.1818C189.921 35.6867 188.709 34.4748 187.214 34.4748C185.719 34.4748 184.507 35.6867 184.507 37.1818C184.507 38.6768 185.719 39.8887 187.214 39.8887Z" stroke="#050A2D" stroke-width="0.0468765" stroke-miterlimit="10"/>
<path opacity="0.8" d="M187.214 45.3052C191.701 45.3052 195.338 41.6682 195.338 37.1817C195.338 32.6953 191.701 29.0583 187.214 29.0583C182.728 29.0583 179.091 32.6953 179.091 37.1817C179.091 41.6682 182.728 45.3052 187.214 45.3052Z" stroke="#050A2D" stroke-width="0.0468765" stroke-miterlimit="10"/>
<path opacity="0.6" d="M187.214 50.7192C194.691 50.7192 200.752 44.6583 200.752 37.1817C200.752 29.7052 194.691 23.6443 187.214 23.6443C179.738 23.6443 173.677 29.7052 173.677 37.1817C173.677 44.6583 179.738 50.7192 187.214 50.7192Z" stroke="#050A2D" stroke-width="0.0468765" stroke-miterlimit="10"/>
<path opacity="0.2" d="M163.913 42.5559C163.408 41.1987 162.906 39.3642 162.854 37.1817C162.603 26.9155 172.367 12.8138 187.222 12.8138C200.68 12.8138 211.59 23.7238 211.59 37.1817C211.59 50.6396 200.68 61.5496 187.222 61.5496C183.595 61.5496 179.978 60.4558 179.978 60.4558C175.134 58.9445 171.9 56.2549 170.257 54.6715" stroke="#050A2D" stroke-width="0.140629" stroke-miterlimit="10"/>
<path opacity="0.4" d="M169.125 42.8244C169.133 42.8592 169.143 42.8965 169.145 42.8965C169.185 42.889 168.268 38.0194 168.268 37.1793C168.268 26.7117 176.752 18.2278 187.219 18.2278C197.687 18.2278 206.171 26.7142 206.171 37.1793C206.171 47.6443 197.687 56.1307 187.219 56.1307C184.423 56.1307 181.584 55.278 181.584 55.278C177.122 53.8736 174.323 51.1169 173.06 49.6926" stroke="#050A2D" stroke-width="0.0468765" stroke-miterlimit="10"/>
<path d="M198.286 15.2623C195.552 14.5166 194.033 12.9705 193.958 10C193.153 12.6921 191.482 14.0667 188.721 14.1736C188.972 14.3426 189.235 14.4868 189.499 14.6235C190.401 15.0933 191.311 15.4413 191.828 16.0976C192.502 16.9527 192.524 18.3173 192.832 19.4583C192.942 19.5254 193.048 19.595 193.158 19.6621C193.364 18.1881 193.928 17.149 194.791 16.448C195.666 15.7371 196.852 15.3742 198.286 15.2599V15.2623Z" fill="#0DDB6E"/>
<path d="M207.12 24.6883C206.867 25.7671 206.439 26.5899 205.86 27.2138C204.896 28.2554 203.511 28.7401 201.806 28.9265C204.642 29.6499 205.957 31.4148 206.143 34.2883C206.417 33.0728 206.902 32.1555 207.58 31.4744C208.527 30.5224 209.85 30.0352 211.51 29.886C208.672 29.2348 207.379 27.5096 207.12 24.6858V24.6883Z" fill="#0DDB6E"/>
<path d="M189.69 56.5582C189.389 56.0163 189.203 55.3675 189.133 54.5994C188.795 55.8796 188.107 56.6651 187.132 57.1399C186.531 57.4332 185.822 57.6072 185.014 57.7041C186.106 58.3007 187.043 58.5468 187.528 59.1533C188.022 59.7723 188.074 60.7442 188.355 61.6863C189.388 60.1385 190.693 59.0506 192.27 58.4225C191.06 58.0969 190.202 57.4879 189.688 56.5582H189.69Z" fill="#0DDB6E"/>
<path d="M197.622 37.1644C197.165 38.6857 196.094 39.3071 194.662 39.6302C196.215 40.0528 196.819 41.0993 197.075 42.5734C197.505 40.9974 198.622 40.4232 200.076 40.1199C198.612 39.6352 197.759 38.7801 197.625 37.1668L197.622 37.1644Z" fill="#0DDB6E"/>
<path d="M175.8 26.1475C175.253 28.4816 173.722 29.3939 171.572 29.5902C172.469 30.1694 173.513 30.413 174.06 31.0717C174.617 31.7429 174.686 32.8192 174.97 33.7191C175.663 31.5987 177.12 30.6666 179.327 30.4428C177.053 29.8438 176.088 28.3648 175.8 26.1475Z" fill="#0DDB6E"/>
<path d="M50.709 37.2016L35.7498 73.6652H34.9593L20 37.2016H21.653L35.3893 71.2192L49.1256 37.2016H50.709Z" fill="#050A2D"/>
<path d="M83.5061 71.075V72.3701C82.8598 72.8747 81.7089 73.3047 80.4859 73.3047C78.5445 73.3047 76.889 72.298 76.889 69.422V62.3749C76.2427 64.7488 74.8755 67.0506 73.0783 68.8478C70.0581 71.7959 65.8149 73.6677 60.7788 73.6677C54.5942 73.6677 49.9185 70.3591 49.9185 64.6046C49.9185 62.3749 50.6369 60.5056 52.0762 58.9942C54.7384 56.1903 59.6279 55.1836 64.5174 54.3906C68.7606 53.6002 73.22 52.6655 75.3776 50.4358C76.3844 49.357 76.889 47.9177 76.889 46.3368C76.889 41.0869 73.5804 37.6341 64.9499 37.6341C59.7 37.6341 54.808 39.4313 51.7878 41.1589V39.7197C54.4501 38.2083 59.5558 36.267 64.9499 36.267C74.2267 36.267 78.2561 40.2939 78.2561 46.3368V68.992C78.2561 70.8613 79.0466 72.0122 80.7742 72.0122C81.7089 72.0122 82.7877 71.5796 83.5061 71.0775V71.075ZM76.8915 56.1878V50.1474C76.6752 50.58 76.3173 51.0821 76.0289 51.3704C73.7271 53.7443 68.9818 54.8952 64.9524 55.5415C59.4862 56.332 55.3151 57.4108 53.1575 59.8568C52.0066 61.0077 51.3603 62.5887 51.3603 64.6021C51.3603 69.4941 55.4593 72.3701 60.9975 72.3701C65.0966 72.3701 69.4118 70.9308 72.5041 67.8386C75.1664 65.1788 76.8915 61.2215 76.8915 56.1878Z" fill="#050A2D"/>
<path d="M87.61 38.5663V63.7396C87.61 69.422 90.2723 72.298 94.7293 72.298C96.8148 72.298 99.0445 71.6517 100.556 70.645V72.0843C99.0445 73.0189 96.7452 73.6677 94.5876 73.6677C89.1214 73.6677 86.2454 70.0708 86.2454 63.7421V38.5688H80.0608V37.2016H86.2454V26.3414H87.6125V37.2016H100.558V38.5688H87.6125L87.61 38.5663Z" fill="#050A2D"/>
<path d="M121.789 35.9016C117.457 35.9016 113.328 37.4154 110.715 40.1671C110.852 37.4154 110.922 34.3902 110.922 31.5689V19.8759H102.393V72.9767H109.96L110.029 68.5744C112.575 71.8083 117.044 73.6652 121.792 73.6652C131.628 73.6652 139.881 65.8922 139.881 54.8182C139.881 43.7442 131.628 35.9041 121.792 35.9041L121.789 35.9016ZM130.696 62.4942C130.917 63.061 130.818 63.6725 130.437 64.0826L129.532 65.0545C129.396 65.2012 129.194 65.2733 128.983 65.246C128.772 65.2211 128.57 65.1043 128.439 64.9253C128.439 64.9253 123.723 58.5792 122.296 56.6278C119.239 59.5511 117.496 61.1345 117.496 61.1345L118.486 63.8862C118.62 64.1945 118.553 64.5499 118.314 64.7861L117.969 65.1316C117.81 65.2907 117.593 65.3777 117.37 65.3702C117.146 65.3653 116.935 65.2658 116.785 65.0993L114.556 62.6011C113.952 63.051 113.318 63.1902 113.022 62.8944C112.726 62.5986 112.865 61.9648 113.318 61.3632L110.82 59.1335C110.653 58.9843 110.556 58.773 110.549 58.5493C110.541 58.3256 110.628 58.1093 110.787 57.9503L111.13 57.6047C111.367 57.3686 111.724 57.299 112.033 57.4332L114.784 58.4225C114.784 58.4225 116.368 56.68 119.291 53.6226C117.337 52.1957 110.994 47.4802 110.994 47.4802C110.815 47.3485 110.698 47.1496 110.673 46.9384C110.648 46.7271 110.718 46.5232 110.864 46.3865L111.836 45.4842C112.246 45.1039 112.858 45.0019 113.425 45.2232L123.196 49.5931C127.166 45.6408 130.383 43.3937 131.454 44.4625C132.525 45.5339 130.276 48.7505 126.323 52.7202L130.693 62.4942H130.696Z" fill="#050A2D"/>
<path d="M142.523 48.9021V72.9766H151.052V48.6957C151.052 45.5314 152.289 44.2935 155.384 44.2935H158.961V36.5901H154.559C146.786 36.5901 142.523 40.3734 142.523 48.9021Z" fill="#050A2D"/>
<path d="M171.619 65.2733L188.057 37.7609V36.5926H161.231C161.206 39.1604 161.181 41.7282 161.156 44.296H175.402L158.964 71.8083V72.9766H186.958L188.196 65.2733H171.619Z" fill="#050A2D"/>
<line x1="232.09" y1="16.8338" x2="232.09" y2="66.8338" stroke="#050A2D"/>
<path d="M260.01 30.5538C255.99 30.5538 252.57 27.4938 252.57 23.0138C252.57 18.5738 255.99 15.4938 260.01 15.4938C264.03 15.4938 267.45 18.5738 267.45 23.0138C267.45 27.4938 264.03 30.5538 260.01 30.5538ZM253.97 23.0138C253.97 26.6538 256.67 29.2538 260.01 29.2538C263.33 29.2538 266.05 26.6538 266.05 23.0138C266.05 19.3938 263.33 16.7738 260.01 16.7738C256.67 16.7738 253.97 19.3938 253.97 23.0138ZM269.788 34.2738V19.7738H270.968V21.7138C271.708 20.4138 273.268 19.5738 275.008 19.5738C277.908 19.5738 280.248 21.8538 280.248 25.0738C280.248 28.2538 277.908 30.5338 275.008 30.5338C273.308 30.5338 271.788 29.7538 271.028 28.5138C271.048 29.2538 271.068 30.0338 271.068 30.7738V34.2738H269.788ZM270.948 25.0738C270.948 27.8338 272.748 29.3138 274.868 29.3138C277.228 29.3138 278.948 27.5338 278.948 25.0738C278.948 22.5938 277.228 20.7938 274.868 20.7938C272.748 20.7938 270.948 22.2938 270.948 25.0738ZM287.183 30.5138C283.983 30.5138 281.843 28.1338 281.843 25.0938C281.843 22.0338 284.043 19.6138 287.063 19.6138C289.663 19.6138 291.963 21.3738 292.043 25.0538H283.083V25.1138C283.083 27.4738 284.723 29.3338 287.203 29.3338C288.903 29.3338 290.283 28.4738 291.063 27.0538L292.023 27.6738C291.223 29.0738 289.643 30.5138 287.183 30.5138ZM283.183 23.9938H290.723C290.323 21.7538 288.763 20.7738 287.043 20.7738C285.023 20.7738 283.563 22.1538 283.183 23.9938ZM294.2 22.8938C294.2 20.7738 295.16 19.7738 297.24 19.7738H298.36V20.9738H297.36C296.02 20.9738 295.48 21.4538 295.48 22.8938V30.3338H294.2V22.8938ZM304.075 30.5338C301.175 30.5338 298.855 28.2538 298.855 25.0738C298.855 21.8538 301.175 19.5738 304.075 19.5738C305.855 19.5738 307.415 20.4338 308.135 21.7538V19.7738H309.315V30.3338H308.135V28.3738C307.415 29.6938 305.855 30.5338 304.075 30.5338ZM300.155 25.0738C300.155 27.5338 301.875 29.3138 304.215 29.3138C306.355 29.3138 308.155 27.8338 308.155 25.0738C308.155 22.2938 306.355 20.7938 304.215 20.7938C301.875 20.7938 300.155 22.5938 300.155 25.0738ZM316.929 30.4738C313.809 30.4738 311.569 28.2338 311.569 25.0738C311.569 21.8938 313.809 19.6738 316.929 19.6738C317.409 19.6738 318.009 19.7338 318.629 19.8338V21.0338C317.949 20.9338 317.429 20.8938 317.049 20.8938C314.549 20.8938 312.869 22.6138 312.869 25.0738C312.869 27.5338 314.549 29.2338 317.049 29.2338C317.429 29.2338 317.949 29.1938 318.629 29.0938V30.2938C318.009 30.4138 317.409 30.4738 316.929 30.4738ZM314.429 34.2738L315.729 31.3738H317.169L315.589 34.2738H314.429ZM325.132 30.5538C322.092 30.5538 319.792 28.2138 319.792 25.0738C319.792 21.8938 322.092 19.5738 325.132 19.5738C328.172 19.5738 330.472 21.8938 330.472 25.0738C330.472 28.2138 328.172 30.5538 325.132 30.5538ZM321.092 25.0738C321.092 27.5338 322.812 29.3138 325.132 29.3138C327.452 29.3138 329.172 27.5338 329.172 25.0738C329.172 22.5938 327.452 20.7938 325.132 20.7938C322.812 20.7938 321.092 22.5938 321.092 25.0738ZM321.812 17.8338C321.812 16.2538 322.672 15.6138 323.612 15.6138C324.892 15.6138 325.492 16.8538 326.432 16.8538C326.912 16.8538 327.252 16.5338 327.272 15.6938H328.252C328.252 17.2338 327.432 17.9138 326.452 17.9138C325.172 17.9138 324.572 16.6538 323.652 16.6538C323.172 16.6538 322.832 16.9738 322.792 17.8338H321.812ZM337.417 30.5138C334.217 30.5138 332.077 28.1338 332.077 25.0938C332.077 22.0338 334.277 19.6138 337.297 19.6138C339.897 19.6138 342.197 21.3738 342.277 25.0538H333.317V25.1138C333.317 27.4738 334.957 29.3338 337.437 29.3338C339.137 29.3338 340.517 28.4738 341.297 27.0538L342.257 27.6738C341.457 29.0738 339.877 30.5138 337.417 30.5138ZM333.417 23.9938H340.957C340.557 21.7538 338.997 20.7738 337.277 20.7738C335.257 20.7738 333.797 22.1538 333.417 23.9938ZM345.975 30.4538C345.495 30.4538 344.735 30.3938 343.955 30.3338V29.1738C344.755 29.2538 345.495 29.2938 345.935 29.2938C347.515 29.2938 348.295 28.7538 348.295 27.6338C348.295 26.8338 347.855 26.2938 346.735 25.5938L346.015 25.1338C344.555 24.2338 343.895 23.3738 343.895 22.2338C343.895 20.6738 345.135 19.6738 347.175 19.6738C347.595 19.6738 348.195 19.7138 348.755 19.7738V20.8538C348.155 20.7938 347.695 20.7738 347.375 20.7738C345.935 20.7738 345.155 21.3138 345.155 22.2338C345.155 22.9338 345.635 23.4738 346.775 24.1738L347.535 24.6538C348.975 25.5738 349.595 26.4138 349.595 27.6138C349.595 29.3738 348.255 30.4538 345.975 30.4538Z" fill="#050A2D"/>
<path d="M254.182 63.3338V36.8378H262.93C268.762 36.8378 272.434 40.1138 272.434 45.4778C272.434 50.5898 268.762 53.9018 262.93 53.9018H260.158V63.3338H254.182ZM260.158 48.5018H262.966C265.126 48.5018 266.386 47.3498 266.386 45.4778C266.386 43.6418 265.126 42.4538 262.966 42.4538H260.158V48.5018ZM283.953 63.8738C278.301 63.8738 273.765 59.6978 273.765 53.8298C273.765 47.9618 278.301 43.7858 283.953 43.7858C289.605 43.7858 294.141 47.9618 294.141 53.8298C294.141 59.6978 289.605 63.8738 283.953 63.8738ZM279.453 53.8298C279.453 56.6738 281.397 58.5818 283.953 58.5818C286.509 58.5818 288.453 56.6738 288.453 53.8298C288.453 50.9858 286.509 49.0778 283.953 49.0778C281.397 49.0778 279.453 50.9858 279.453 53.8298ZM297.125 51.1658C297.125 46.3778 299.681 44.2538 303.929 44.2538H306.377V49.3658H304.469C303.317 49.3658 302.813 49.8698 302.813 51.0218V63.3338H297.125V51.1658ZM310.592 63.3338L310.628 49.3658H308.36V44.2538H310.628V39.3578L316.316 37.5218V44.2538H318.62V49.3658H316.316L316.28 63.3338H310.592ZM330.132 63.6938C324.984 63.6938 320.628 59.6618 320.628 53.7938C320.628 47.9258 324.984 43.8938 330.132 43.8938C332.256 43.8938 334.344 44.6138 335.64 45.9818L335.676 44.2538H340.716V63.3338H335.676L335.64 61.6058C334.344 62.9738 332.256 63.6938 330.132 63.6938ZM326.316 53.7938C326.316 56.6738 328.26 58.5098 330.888 58.5098C333.48 58.5098 335.388 56.6738 335.388 53.7938C335.388 50.9138 333.48 49.0778 330.888 49.0778C328.26 49.0778 326.316 50.9138 326.316 53.7938ZM344.66 63.3338V35.5058H350.348V63.3338H344.66ZM360.476 63.3338L369.404 36.8378H375.236L384.236 63.3338H378.008L376.784 59.3378H367.856L366.632 63.3338H360.476ZM369.404 54.2258H375.2L372.284 44.8298L369.404 54.2258ZM389.028 63.3338V42.3818H383.052V36.8378H400.98V42.3818H395.004V63.3338H389.028ZM416.38 63.6938C407.992 63.6938 402.268 58.1858 402.268 50.0858C402.268 41.9858 407.992 36.4778 416.38 36.4778C417.568 36.4778 418.936 36.5858 420.268 36.8018V42.3098C419.116 42.0938 417.892 41.9498 416.776 41.9498C411.664 41.9498 408.46 45.0818 408.46 50.0858C408.46 55.0898 411.664 58.2218 416.776 58.2218C417.892 58.2218 419.116 58.0778 420.268 57.8618V63.3698C418.936 63.5858 417.568 63.6938 416.38 63.6938Z" fill="#050A2D"/>
</svg>
